<svg id="LOFT_Logo" width="100%" height="100%" xmlns="http://www.w3.org/2000/svg" viewBox="0 0 89.76 33.12" version="1.1">
    <style>
        #LOFT_Logo path{fill:#231815;}
    </style>
    <path d="M27.12,12a1.69,1.69,0,0,1-1.68,1.68A1.61,1.61,0,0,1,23.76,12a1.78,1.78,0,0,1,1.68-1.68A1.68,1.68,0,0,1,27.12,12Z" />
    <path d="M13.44.48C15.93.5,22.5,4.29,23,4.32c1.87-.6,5.51-2.76,12.48-.48C46,8.78,45.05,23.7,38.88,29.28H49.2V0H89.76V3.84h-9.6V33.12H75.84V3.84H53.52v11H65.28v3.84H53.52v14.4H0V0H4.32V29.28H20.16c-2.11-1.9-6.85-9.11-2.52-19.36-2.31-3.18-4.82-6.48-5.18-8.49C12.34.63,13,.46,13.44.48Zm6,7a2.4,2.4,0,0,1,1-1C19.84,6.16,18.63,5.3,18,5,18.18,5.8,19,6.58,19.44,7.44ZM29.8,29.31c6,0,9.66-4.09,9.66-11.68C39.46,8,33,6.14,29.68,6.14s-9.93,2.25-9.93,11.7C19.75,23.07,22,29.31,29.8,29.31Z" />
</svg>